<svg width="21" height="21" viewBox="0 0 21 21" fill="none" xmlns="http://www.w3.org/2000/svg">
<path d="M15.25 3.375H18.8125C19.1274 3.375 19.4295 3.50011 19.6522 3.72281C19.8749 3.94551 20 4.24756 20 4.5625V17.625C20 18.2549 19.7498 18.859 19.3044 19.3044C18.859 19.7498 18.2549 20 17.625 20M17.625 20C16.9951 20 16.391 19.7498 15.9456 19.3044C15.5002 18.859 15.25 18.2549 15.25 17.625V2.1875C15.25 1.87256 15.1249 1.57051 14.9022 1.34781C14.6795 1.12511 14.3774 1 14.0625 1H2.1875C1.87256 1 1.57051 1.12511 1.34781 1.34781C1.12511 1.57051 1 1.87256 1 2.1875V16.4375C1 17.3823 1.37533 18.2885 2.04343 18.9566C2.71153 19.6247 3.61767 20 4.5625 20H17.625ZM5.75 5.75H10.5M5.75 10.5H10.5M5.75 15.25H10.5" stroke="#3F3F3F" stroke-width="2" stroke-linecap="round" stroke-linejoin="round"/>
</svg>
