<svg width="29" height="21" viewBox="0 0 29 21" fill="none" xmlns="http://www.w3.org/2000/svg">
<path d="M19 7.33333L25.8295 3.72966C26.0581 3.60907 26.3122 3.55214 26.5675 3.56428C26.8228 3.57642 27.071 3.65722 27.2884 3.79902C27.5058 3.94082 27.6853 4.13892 27.8099 4.37451C27.9344 4.6101 27.9999 4.87538 28 5.14516V15.8548C27.9999 16.1246 27.9344 16.3899 27.8099 16.6255C27.6853 16.8611 27.5058 17.0592 27.2884 17.201C27.071 17.3428 26.8228 17.4236 26.5675 17.4357C26.3122 17.4479 26.0581 17.3909 25.8295 17.2703L19 13.6667V7.33333Z" stroke="#EFF2F1" stroke-width="2" stroke-linecap="round" stroke-linejoin="round"/>
<path d="M1 4.16667C1 3.32681 1.31607 2.52136 1.87868 1.9275C2.44129 1.33363 3.20435 1 4 1H16C16.7956 1 17.5587 1.33363 18.1213 1.9275C18.6839 2.52136 19 3.32681 19 4.16667V16.8333C19 17.6732 18.6839 18.4786 18.1213 19.0725C17.5587 19.6664 16.7956 20 16 20H4C3.20435 20 2.44129 19.6664 1.87868 19.0725C1.31607 18.4786 1 17.6732 1 16.8333V4.16667Z" stroke="#EFF2F1" stroke-width="2" stroke-linecap="round" stroke-linejoin="round"/>
</svg>
