<?xml version="1.0" encoding="utf-8"?>
<!-- Generator: Adobe Illustrator 27.7.0, SVG Export Plug-In . SVG Version: 6.00 Build 0)  -->
<svg version="1.1" id="Layer_1" xmlns="http://www.w3.org/2000/svg" xmlns:xlink="http://www.w3.org/1999/xlink" x="0px" y="0px"
	 viewBox="0 0 48 48" style="enable-background:new 0 0 48 48;" xml:space="preserve">
<style type="text/css">
	.st0{fill:none;stroke:#97D8C4;stroke-width:4;stroke-linecap:round;stroke-linejoin:round;}
</style>
<path class="st0" d="M30.9,17.7c-0.4-0.7-1-1.3-1.7-1.7c-0.7-0.4-1.5-0.6-2.4-0.6h-4.6c-1.2,0-2.4,0.5-3.2,1.3
	c-0.9,0.9-1.3,2-1.3,3.2s0.5,2.4,1.3,3.2c0.9,0.9,2,1.3,3.2,1.3h4.6c1.2,0,2.4,0.5,3.2,1.3c0.9,0.9,1.3,2,1.3,3.2
	c0,1.2-0.5,2.4-1.3,3.2c-0.9,0.9-2,1.3-3.2,1.3h-4.6c-0.8,0-1.6-0.2-2.4-0.6c-0.7-0.4-1.3-1-1.7-1.7 M24.5,13.1v22.8 M4,24.5
	c0,2.7,0.5,5.4,1.6,7.8c1,2.5,2.5,4.7,4.4,6.7c1.9,1.9,4.2,3.4,6.7,4.4c2.5,1,5.2,1.6,7.8,1.6s5.4-0.5,7.8-1.6
	c2.5-1,4.7-2.5,6.7-4.4c1.9-1.9,3.4-4.2,4.4-6.7c1-2.5,1.6-5.2,1.6-7.8s-0.5-5.4-1.6-7.8c-1-2.5-2.5-4.7-4.4-6.7
	c-1.9-1.9-4.2-3.4-6.7-4.4c-2.5-1-5.2-1.6-7.8-1.6s-5.4,0.5-7.8,1.6S11.9,8.1,10,10c-1.9,1.9-3.4,4.2-4.4,6.7S4,21.8,4,24.5z"/>
</svg>
