<?xml version="1.0" encoding="utf-8"?>
<!-- Generator: Adobe Illustrator 27.7.0, SVG Export Plug-In . SVG Version: 6.00 Build 0)  -->
<svg version="1.1" id="Layer_1" xmlns="http://www.w3.org/2000/svg" xmlns:xlink="http://www.w3.org/1999/xlink" x="0px" y="0px"
	 viewBox="0 0 48 48" style="enable-background:new 0 0 48 48;" xml:space="preserve">
<style type="text/css">
	.st0{fill:none;stroke:#97D8C4;stroke-width:4;stroke-linecap:round;stroke-linejoin:round;}
</style>
<path class="st0" d="M22.9,37l-6.6-3.4 M16.3,33.6L3,40.4V10.8L16.3,4 M16.3,33.6V4 M16.3,4l13.3,6.8 M29.5,10.8L42.8,4v15.9
	 M29.5,10.8v11.4 M38.4,35.9L38.4,35.9 M43.1,40.7c0.9-1,1.6-2.2,1.8-3.5c0.3-1.3,0.1-2.7-0.4-3.9C44,32,43.1,31,42.1,30.2
	c-1.1-0.8-2.4-1.2-3.7-1.2s-2.6,0.4-3.7,1.2c-1.1,0.8-1.9,1.8-2.4,3.1c-0.5,1.2-0.6,2.6-0.4,3.9c0.3,1.3,0.9,2.5,1.8,3.5
	c0.9,1,2.5,2.4,4.7,4.3C40.7,43,42.3,41.5,43.1,40.7z"/>
</svg>
